<?xml version="1.0" encoding="utf-8"?>
<!-- Generator: Adobe Illustrator 19.2.1, SVG Export Plug-In . SVG Version: 6.00 Build 0)  -->
<svg version="1.1" id="レイヤー_1" xmlns="http://www.w3.org/2000/svg" xmlns:xlink="http://www.w3.org/1999/xlink" x="0px"
	 y="0px" viewBox="0 0 225.2 270.3" style="enable-background:new 0 0 225.2 270.3;" xml:space="preserve">
<style type="text/css">
	.st0{fill:none;stroke:#231815;stroke-width:0.75;}
</style>
<title>szdplogo-for-web</title>
<path class="st0" d="M113,209.4c0.4,0.4,0.7,0.8,1.1,1.2c0,0,0,0,0,0c21.5,21.5,56.3,21.5,77.8,0c21.5-21.5,21.5-56.3,0-77.8
	c-21.5-21.5-56.3-21.5-77.8,0c-0.4,0.4-0.7,0.8-1.1,1.1l0,0c-22.1,20.9-56.9,19.9-77.8-2.2s-19.9-56.9,2.2-77.8
	c21.2-20,54.3-20,75.5,0"/>
<line class="st0" x1="112.9" y1="265" x2="112.9" y2="3.6"/>
<polyline class="st0" points="112.9,25.5 221.3,133.8 112.9,242.1 "/>
<line class="st0" x1="113" y1="25.5" x2="221" y2="133.5"/>
<line class="st0" x1="221" y1="134.3" x2="113" y2="242.3"/>
<line class="st0" x1="112.8" y1="241.7" x2="4.8" y2="133.7"/>
<line class="st0" x1="4.8" y1="133.7" x2="112.9" y2="25.5"/>
</svg>
